# MagicaVoxel @ Ephtracy

# group
o 

# material
mtllib espasa.mtl
usemtl palette

# normals
vn -1 0 0
vn 1 0 0
vn 0 0 1
vn 0 0 -1
vn 0 -1 0
vn 0 1 0

# texcoords
vt 0.966797 0.5
vt 0.970703 0.5
vt 0.978516 0.5

# verts
v -0.4 0.9 0.2
v -0.4 0.9 0.0999999
v -0.4 0.9 -5.96046e-08
v -0.4 0.9 -0.1
v -0.4 2.8 0.2
v -0.4 2.8 0.0999999
v -0.4 2.8 -5.96046e-08
v -0.4 2.8 -0.1
v -0.3 2.8 0.2
v -0.3 2.8 0.0999999
v -0.3 2.8 -5.96046e-08
v -0.3 2.8 -0.1
v -0.3 2.9 0.2
v -0.3 2.9 0.0999999
v -0.3 2.9 -5.96046e-08
v -0.3 2.9 -0.1
v -0.2 2.9 0.2
v -0.2 2.9 0.0999999
v -0.2 2.9 -5.96046e-08
v -0.2 2.9 -0.1
v -0.2 3 0.2
v -0.2 3 0.0999999
v -0.2 3 -5.96046e-08
v -0.2 3 -0.1
v -0.1 3 0.2
v -0.1 3 0.0999999
v -0.1 3 -5.96046e-08
v -0.1 3 -0.1
v -0.1 3.1 0.2
v -0.1 3.1 0.0999999
v -0.1 3.1 -5.96046e-08
v -0.1 3.1 -0.1
v 0 3 0.2
v 0 3 0.0999999
v 0 3 -5.96046e-08
v 0 3 -0.1
v 0 3.1 0.2
v 0 3.1 0.0999999
v 0 3.1 -5.96046e-08
v 0 3.1 -0.1
v 0.1 2.9 0.2
v 0.1 2.9 0.0999999
v 0.1 2.9 -5.96046e-08
v 0.1 2.9 -0.1
v 0.1 3 0.2
v 0.1 3 0.0999999
v 0.1 3 -5.96046e-08
v 0.1 3 -0.1
v 0.2 2.8 0.2
v 0.2 2.8 0.0999999
v 0.2 2.8 -5.96046e-08
v 0.2 2.8 -0.1
v 0.2 2.9 0.2
v 0.2 2.9 0.0999999
v 0.2 2.9 -5.96046e-08
v 0.2 2.9 -0.1
v 0.3 0.9 0.2
v 0.3 0.9 0.0999999
v 0.3 0.9 -5.96046e-08
v 0.3 0.9 -0.1
v 0.3 2.8 0.2
v 0.3 2.8 0.0999999
v 0.3 2.8 -5.96046e-08
v 0.3 2.8 -0.1
v -0.4 0.9 0.2
v -0.4 2.8 0.2
v -0.3 0.9 0.2
v -0.3 2.7 0.2
v -0.3 2.8 0.2
v -0.3 2.9 0.2
v -0.2 0.9 0.2
v -0.2 2.7 0.2
v -0.2 2.9 0.2
v -0.2 3 0.2
v -0.1 0.9 0.2
v -0.1 1.9 0.2
v -0.1 2.5 0.2
v -0.1 3 0.2
v -0.1 3.1 0.2
v 0 0.9 0.2
v 0 1.9 0.2
v 0 2.5 0.2
v 0 3 0.2
v 0 3.1 0.2
v 0.1 0.9 0.2
v 0.1 2.7 0.2
v 0.1 2.9 0.2
v 0.1 3 0.2
v 0.2 0.9 0.2
v 0.2 2.7 0.2
v 0.2 2.8 0.2
v 0.2 2.9 0.2
v 0.3 0.9 0.2
v 0.3 2.8 0.2
v -0.4 0.9 -0.1
v -0.4 2.8 -0.1
v -0.3 0.9 -0.1
v -0.3 2.7 -0.1
v -0.3 2.8 -0.1
v -0.3 2.9 -0.1
v -0.2 0.9 -0.1
v -0.2 2.7 -0.1
v -0.2 2.9 -0.1
v -0.2 3 -0.1
v -0.1 0.9 -0.1
v -0.1 1.9 -0.1
v -0.1 2.5 -0.1
v -0.1 3 -0.1
v -0.1 3.1 -0.1
v 0 0.9 -0.1
v 0 1.9 -0.1
v 0 2.5 -0.1
v 0 3 -0.1
v 0 3.1 -0.1
v 0.1 0.9 -0.1
v 0.1 2.7 -0.1
v 0.1 2.9 -0.1
v 0.1 3 -0.1
v 0.2 0.9 -0.1
v 0.2 2.7 -0.1
v 0.2 2.8 -0.1
v 0.2 2.9 -0.1
v 0.3 0.9 -0.1
v 0.3 2.8 -0.1
v -0.4 0.9 0.2
v -0.3 0.9 0.2
v -0.2 0.9 0.2
v -0.1 0.9 0.2
v 0 0.9 0.2
v 0.1 0.9 0.2
v 0.2 0.9 0.2
v 0.3 0.9 0.2
v -0.4 0.9 0.0999999
v -0.3 0.9 0.0999999
v -0.2 0.9 0.0999999
v -0.1 0.9 0.0999999
v 0 0.9 0.0999999
v 0.1 0.9 0.0999999
v 0.2 0.9 0.0999999
v 0.3 0.9 0.0999999
v -0.4 0.9 -5.96046e-08
v -0.3 0.9 -5.96046e-08
v -0.2 0.9 -5.96046e-08
v -0.1 0.9 -5.96046e-08
v 0 0.9 -5.96046e-08
v 0.1 0.9 -5.96046e-08
v 0.2 0.9 -5.96046e-08
v 0.3 0.9 -5.96046e-08
v -0.4 0.9 -0.1
v -0.3 0.9 -0.1
v -0.2 0.9 -0.1
v -0.1 0.9 -0.1
v 0 0.9 -0.1
v 0.1 0.9 -0.1
v 0.2 0.9 -0.1
v 0.3 0.9 -0.1
v -0.4 2.8 0.2
v -0.3 2.8 0.2
v 0.2 2.8 0.2
v 0.3 2.8 0.2
v -0.4 2.8 0.0999999
v -0.3 2.8 0.0999999
v 0.2 2.8 0.0999999
v 0.3 2.8 0.0999999
v -0.4 2.8 -5.96046e-08
v -0.3 2.8 -5.96046e-08
v 0.2 2.8 -5.96046e-08
v 0.3 2.8 -5.96046e-08
v -0.4 2.8 -0.1
v -0.3 2.8 -0.1
v 0.2 2.8 -0.1
v 0.3 2.8 -0.1
v -0.3 2.9 0.2
v -0.2 2.9 0.2
v 0.1 2.9 0.2
v 0.2 2.9 0.2
v -0.3 2.9 0.0999999
v -0.2 2.9 0.0999999
v 0.1 2.9 0.0999999
v 0.2 2.9 0.0999999
v -0.3 2.9 -5.96046e-08
v -0.2 2.9 -5.96046e-08
v 0.1 2.9 -5.96046e-08
v 0.2 2.9 -5.96046e-08
v -0.3 2.9 -0.1
v -0.2 2.9 -0.1
v 0.1 2.9 -0.1
v 0.2 2.9 -0.1
v -0.2 3 0.2
v -0.1 3 0.2
v 0 3 0.2
v 0.1 3 0.2
v -0.2 3 0.0999999
v -0.1 3 0.0999999
v 0 3 0.0999999
v 0.1 3 0.0999999
v -0.2 3 -5.96046e-08
v -0.1 3 -5.96046e-08
v 0 3 -5.96046e-08
v 0.1 3 -5.96046e-08
v -0.2 3 -0.1
v -0.1 3 -0.1
v 0 3 -0.1
v 0.1 3 -0.1
v -0.1 3.1 0.2
v 0 3.1 0.2
v -0.1 3.1 0.0999999
v 0 3.1 0.0999999
v -0.1 3.1 -5.96046e-08
v 0 3.1 -5.96046e-08
v -0.1 3.1 -0.1
v 0 3.1 -0.1

# faces
f 5/3/1 2/3/1 1/3/1
f 6/2/1 3/2/1 2/2/1
f 6/3/1 2/3/1 5/3/1
f 7/3/1 4/3/1 3/3/1
f 7/2/1 3/2/1 6/2/1
f 8/3/1 4/3/1 7/3/1
f 13/3/1 10/3/1 9/3/1
f 14/2/1 11/2/1 10/2/1
f 14/3/1 10/3/1 13/3/1
f 15/3/1 12/3/1 11/3/1
f 15/2/1 11/2/1 14/2/1
f 16/3/1 12/3/1 15/3/1
f 21/3/1 18/3/1 17/3/1
f 22/2/1 19/2/1 18/2/1
f 22/3/1 18/3/1 21/3/1
f 23/3/1 20/3/1 19/3/1
f 23/2/1 19/2/1 22/2/1
f 24/3/1 20/3/1 23/3/1
f 29/1/1 26/1/1 25/1/1
f 30/2/1 27/2/1 26/2/1
f 30/1/1 26/1/1 29/1/1
f 31/1/1 28/1/1 27/1/1
f 31/2/1 27/2/1 30/2/1
f 32/1/1 28/1/1 31/1/1
f 33/1/2 34/1/2 37/1/2
f 34/2/2 35/2/2 38/2/2
f 37/1/2 34/1/2 38/1/2
f 35/1/2 36/1/2 39/1/2
f 38/2/2 35/2/2 39/2/2
f 39/1/2 36/1/2 40/1/2
f 41/3/2 42/3/2 45/3/2
f 42/2/2 43/2/2 46/2/2
f 45/3/2 42/3/2 46/3/2
f 43/3/2 44/3/2 47/3/2
f 46/2/2 43/2/2 47/2/2
f 47/3/2 44/3/2 48/3/2
f 49/3/2 50/3/2 53/3/2
f 50/2/2 51/2/2 54/2/2
f 53/3/2 50/3/2 54/3/2
f 51/3/2 52/3/2 55/3/2
f 54/2/2 51/2/2 55/2/2
f 55/3/2 52/3/2 56/3/2
f 57/3/2 58/3/2 61/3/2
f 58/2/2 59/2/2 62/2/2
f 61/3/2 58/3/2 62/3/2
f 59/3/2 60/3/2 63/3/2
f 62/2/2 59/2/2 63/2/2
f 63/3/2 60/3/2 64/3/2
f 67/3/3 66/3/3 65/3/3
f 68/3/3 66/3/3 67/3/3
f 69/3/3 66/3/3 68/3/3
f 71/2/3 68/2/3 67/2/3
f 72/3/3 70/3/3 69/3/3
f 72/2/3 68/2/3 71/2/3
f 72/3/3 69/3/3 68/3/3
f 73/3/3 70/3/3 72/3/3
f 75/3/3 72/3/3 71/3/3
f 75/3/3 74/3/3 73/3/3
f 75/3/3 73/3/3 72/3/3
f 76/3/3 74/3/3 75/3/3
f 77/3/3 74/3/3 76/3/3
f 78/3/3 74/3/3 77/3/3
f 80/2/3 76/2/3 75/2/3
f 81/3/3 77/3/3 76/3/3
f 81/2/3 76/2/3 80/2/3
f 82/1/3 79/1/3 78/1/3
f 82/3/3 77/3/3 81/3/3
f 82/1/3 78/1/3 77/1/3
f 83/1/3 79/1/3 82/1/3
f 84/1/3 79/1/3 83/1/3
f 85/3/3 81/3/3 80/3/3
f 85/3/3 82/3/3 81/3/3
f 85/3/3 83/3/3 82/3/3
f 86/3/3 83/3/3 85/3/3
f 87/3/3 83/3/3 86/3/3
f 88/3/3 83/3/3 87/3/3
f 89/2/3 86/2/3 85/2/3
f 90/3/3 87/3/3 86/3/3
f 90/2/3 86/2/3 89/2/3
f 91/3/3 87/3/3 90/3/3
f 92/3/3 87/3/3 91/3/3
f 93/3/3 90/3/3 89/3/3
f 93/3/3 91/3/3 90/3/3
f 94/3/3 91/3/3 93/3/3
f 95/3/4 96/3/4 97/3/4
f 97/3/4 96/3/4 98/3/4
f 98/3/4 96/3/4 99/3/4
f 97/2/4 98/2/4 101/2/4
f 99/3/4 100/3/4 102/3/4
f 101/2/4 98/2/4 102/2/4
f 98/3/4 99/3/4 102/3/4
f 102/3/4 100/3/4 103/3/4
f 101/3/4 102/3/4 105/3/4
f 103/3/4 104/3/4 105/3/4
f 102/3/4 103/3/4 105/3/4
f 105/3/4 104/3/4 106/3/4
f 106/3/4 104/3/4 107/3/4
f 107/3/4 104/3/4 108/3/4
f 105/2/4 106/2/4 110/2/4
f 106/3/4 107/3/4 111/3/4
f 110/2/4 106/2/4 111/2/4
f 108/1/4 109/1/4 112/1/4
f 111/3/4 107/3/4 112/3/4
f 107/1/4 108/1/4 112/1/4
f 112/1/4 109/1/4 113/1/4
f 113/1/4 109/1/4 114/1/4
f 110/3/4 111/3/4 115/3/4
f 111/3/4 112/3/4 115/3/4
f 112/3/4 113/3/4 115/3/4
f 115/3/4 113/3/4 116/3/4
f 116/3/4 113/3/4 117/3/4
f 117/3/4 113/3/4 118/3/4
f 115/2/4 116/2/4 119/2/4
f 116/3/4 117/3/4 120/3/4
f 119/2/4 116/2/4 120/2/4
f 120/3/4 117/3/4 121/3/4
f 121/3/4 117/3/4 122/3/4
f 119/3/4 120/3/4 123/3/4
f 120/3/4 121/3/4 123/3/4
f 123/3/4 121/3/4 124/3/4
f 133/3/5 126/3/5 125/3/5
f 134/2/5 127/2/5 126/2/5
f 134/3/5 126/3/5 133/3/5
f 135/3/5 128/3/5 127/3/5
f 135/2/5 127/2/5 134/2/5
f 136/2/5 129/2/5 128/2/5
f 136/3/5 128/3/5 135/3/5
f 137/3/5 130/3/5 129/3/5
f 137/2/5 129/2/5 136/2/5
f 138/2/5 131/2/5 130/2/5
f 138/3/5 130/3/5 137/3/5
f 139/3/5 132/3/5 131/3/5
f 139/2/5 131/2/5 138/2/5
f 140/3/5 132/3/5 139/3/5
f 141/2/5 134/2/5 133/2/5
f 142/3/5 138/3/5 137/3/5
f 142/2/5 134/2/5 141/2/5
f 142/3/5 135/3/5 134/3/5
f 142/3/5 136/3/5 135/3/5
f 142/3/5 139/3/5 138/3/5
f 142/3/5 137/3/5 136/3/5
f 143/3/5 139/3/5 142/3/5
f 144/3/5 139/3/5 143/3/5
f 145/3/5 139/3/5 144/3/5
f 146/3/5 139/3/5 145/3/5
f 147/2/5 140/2/5 139/2/5
f 147/3/5 139/3/5 146/3/5
f 148/2/5 140/2/5 147/2/5
f 149/3/5 142/3/5 141/3/5
f 150/2/5 143/2/5 142/2/5
f 150/3/5 142/3/5 149/3/5
f 151/3/5 144/3/5 143/3/5
f 151/2/5 143/2/5 150/2/5
f 152/2/5 145/2/5 144/2/5
f 152/3/5 144/3/5 151/3/5
f 153/3/5 146/3/5 145/3/5
f 153/2/5 145/2/5 152/2/5
f 154/2/5 147/2/5 146/2/5
f 154/3/5 146/3/5 153/3/5
f 155/3/5 148/3/5 147/3/5
f 155/2/5 147/2/5 154/2/5
f 156/3/5 148/3/5 155/3/5
f 157/3/6 158/3/6 161/3/6
f 161/3/6 158/3/6 162/3/6
f 159/3/6 160/3/6 163/3/6
f 163/3/6 160/3/6 164/3/6
f 161/2/6 162/2/6 165/2/6
f 165/2/6 162/2/6 166/2/6
f 163/2/6 164/2/6 167/2/6
f 167/2/6 164/2/6 168/2/6
f 165/3/6 166/3/6 169/3/6
f 169/3/6 166/3/6 170/3/6
f 167/3/6 168/3/6 171/3/6
f 171/3/6 168/3/6 172/3/6
f 173/3/6 174/3/6 177/3/6
f 177/3/6 174/3/6 178/3/6
f 175/3/6 176/3/6 179/3/6
f 179/3/6 176/3/6 180/3/6
f 177/2/6 178/2/6 181/2/6
f 181/2/6 178/2/6 182/2/6
f 179/2/6 180/2/6 183/2/6
f 183/2/6 180/2/6 184/2/6
f 181/3/6 182/3/6 185/3/6
f 185/3/6 182/3/6 186/3/6
f 183/3/6 184/3/6 187/3/6
f 187/3/6 184/3/6 188/3/6
f 189/3/6 190/3/6 193/3/6
f 193/3/6 190/3/6 194/3/6
f 191/3/6 192/3/6 195/3/6
f 195/3/6 192/3/6 196/3/6
f 193/2/6 194/2/6 197/2/6
f 197/2/6 194/2/6 198/2/6
f 195/2/6 196/2/6 199/2/6
f 199/2/6 196/2/6 200/2/6
f 197/3/6 198/3/6 201/3/6
f 201/3/6 198/3/6 202/3/6
f 199/3/6 200/3/6 203/3/6
f 203/3/6 200/3/6 204/3/6
f 205/1/6 206/1/6 207/1/6
f 207/1/6 206/1/6 208/1/6
f 207/2/6 208/2/6 209/2/6
f 209/2/6 208/2/6 210/2/6
f 209/1/6 210/1/6 211/1/6
f 211/1/6 210/1/6 212/1/6
